<svg width="26" height="29" viewBox="0 0 26 29" fill="none" xmlns="http://www.w3.org/2000/svg">
<path fill-rule="evenodd" clip-rule="evenodd" d="M25.2286 27.7385C25.2029 27.8225 25.1594 27.902 25.1072 27.9726C25.0039 28.1124 24.8316 28.1823 24.6593 28.1823H0.710121C0.537825 28.1823 0.365529 28.1124 0.262152 27.9726C0.158774 27.8328 0.0898558 27.6581 0.124315 27.4833L2.19187 7.94589C2.19807 7.88927 2.21208 7.83492 2.23271 7.78386C2.21235 7.83457 2.1985 7.88852 2.19235 7.94469L0.124809 27.4821C0.0903495 27.6569 0.159268 27.8316 0.262645 27.9714C0.366022 28.1112 0.538317 28.1811 0.710612 28.1811H24.6596C24.8319 28.1811 25.0042 28.1112 25.1076 27.9714C25.1596 27.9011 25.2028 27.822 25.2286 27.7385ZM6.74048 7.38548H6.74094V6.19715C6.74094 5.43985 6.87786 4.71459 7.12794 4.0455C6.87757 4.71492 6.74048 5.4406 6.74048 6.19835V7.38548ZM22.5573 7.26974H18.8476V6.19835C18.8476 2.77851 16.1081 0 12.7364 0C9.36462 0 6.62519 2.77851 6.62519 6.19835V7.26974H2.81213C2.44446 7.26974 2.11831 7.55842 2.07723 7.93341L0.0102045 27.4659C-0.030645 27.6838 0.0569383 27.89 0.169916 28.0428C0.299537 28.2181 0.509693 28.2993 0.710121 28.2993H24.6593C24.8597 28.2993 25.0698 28.2181 25.1995 28.0428C25.3124 27.89 25.4 27.6838 25.3592 27.4658L23.2921 7.93297C23.251 7.55799 22.9249 7.26974 22.5573 7.26974ZM18.112 11.0336C18.3585 11.0336 18.5481 11.2259 18.5481 11.4759C18.5481 11.7259 18.3585 11.9182 18.112 11.9182C17.8656 11.9182 17.676 11.7259 17.676 11.4759C17.676 11.2259 17.8656 11.0336 18.112 11.0336ZM8.09631 6.19835C8.09631 3.60669 10.1812 1.4921 12.7364 1.4921C15.2916 1.4921 17.3765 3.60669 17.3765 6.19835V7.26974H8.09631V6.19835ZM7.36075 11.0336C7.6072 11.0336 7.7968 11.2259 7.7968 11.4759C7.7968 11.7259 7.6072 11.9182 7.36075 11.9182C7.11429 11.9182 6.92469 11.7259 6.92469 11.4759C6.92469 11.2259 7.11429 11.0336 7.36075 11.0336ZM24.0389 26.888L22.1093 8.60995H18.5948V8.60875H22.1097L24.0394 26.888H24.0389ZM19.6784 11.9946C19.4468 12.7053 18.7833 13.2234 18.0086 13.2234C17.0438 13.2234 16.2512 12.4196 16.2512 11.441C16.2512 11.238 16.2848 11.0423 16.347 10.8598C16.2851 11.042 16.2516 11.2372 16.2516 11.4398C16.2516 12.4184 17.0442 13.2222 18.009 13.2222C18.7832 13.2222 19.4465 12.7047 19.6784 11.9946ZM17.4228 9.76227C17.423 9.76222 17.4231 9.76217 17.4232 9.76212V8.60875H7.91255V8.60995H17.4228V9.76227ZM3.36383 8.60995H6.74048V9.76229C6.74063 9.76223 6.74079 9.76218 6.74094 9.76212V8.60875H3.36396L3.36383 8.60995ZM5.69098 10.7875C5.61233 10.99 5.56933 11.2102 5.56933 11.4398C5.56933 12.4184 6.36189 13.2222 7.32674 13.2222C8.0746 13.2222 8.71895 12.7393 8.97095 12.0664C8.71926 12.7399 8.07459 13.2234 7.32629 13.2234C6.36143 13.2234 5.56887 12.4196 5.56887 11.441C5.56887 11.211 5.61203 10.9903 5.69098 10.7875ZM3.46709 8.72689L1.56206 26.7722H23.9107L22.0057 8.72689H18.7097V9.68232C19.4029 9.964 19.8814 10.6505 19.8814 11.441C19.8814 12.4842 19.0372 13.3404 18.0086 13.3404C16.9801 13.3404 16.1359 12.4842 16.1359 11.441C16.1359 10.6505 16.6144 9.964 17.3075 9.68232V8.72689H8.02739V9.68232C8.72056 9.964 9.199 10.6505 9.199 11.441C9.199 12.4842 8.35482 13.3404 7.32629 13.3404C6.29775 13.3404 5.45357 12.4842 5.45357 11.441C5.45357 10.6505 5.93201 9.964 6.62519 9.68232V8.72689H3.46709ZM18.112 10.9167C18.4221 10.9167 18.6634 11.1613 18.6634 11.4759C18.6634 11.5408 18.6531 11.6027 18.6341 11.6601C18.6534 11.6024 18.6638 11.5401 18.6638 11.4747C18.6638 11.1602 18.4225 10.9155 18.1124 10.9155C17.8663 10.9155 17.6635 11.0696 17.5904 11.2905C17.6639 11.0703 17.8663 10.9167 18.112 10.9167ZM8.28842 4.49407C8.96986 2.67443 10.7085 1.37516 12.7364 1.37516C15.3553 1.37516 17.4918 3.5421 17.4918 6.19835V7.38548H17.4922V6.19715C17.4922 3.5409 15.3557 1.37396 12.7368 1.37396C10.7085 1.37396 8.96954 2.6738 8.28842 4.49407ZM7.36075 10.9167C7.67088 10.9167 7.91209 11.1613 7.91209 11.4759C7.91209 11.5482 7.89936 11.6167 7.87599 11.6795C7.89965 11.6164 7.91255 11.5474 7.91255 11.4747C7.91255 11.1602 7.67133 10.9155 7.3612 10.9155C7.12474 10.9155 6.92835 11.0577 6.84839 11.2647C6.92864 11.0584 7.12474 10.9167 7.36075 10.9167Z" fill="#221A25"/>
</svg>
