<svg width="16" height="16" viewBox="0 0 16 16" fill="none" xmlns="http://www.w3.org/2000/svg">
<path fill-rule="evenodd" clip-rule="evenodd" d="M5.21371 1C4.84626 1 4.54839 1.29788 4.54839 1.66532V8.98387H1.66532C1.29788 8.98387 1 9.28175 1 9.64919V10.5363C1 12.8635 2.88654 14.75 5.21371 14.75H11.4234C13.7506 14.75 15.6371 12.8635 15.6371 10.5363V1.66532C15.6371 1.29788 15.3392 1 14.9718 1H5.21371ZM8.35038 13.4194C7.64296 12.6656 7.20968 11.6516 7.20968 10.5363V10.3145H5.21371H2.33065V10.5363C2.33065 12.1286 3.62144 13.4194 5.21371 13.4194H8.35038ZM11.4234 13.4194C13.0157 13.4194 14.3065 12.1286 14.3065 10.5363V2.33065H5.87903V8.98387H7.875C8.24245 8.98387 8.54032 9.28175 8.54032 9.64919V10.5363C8.54032 12.1286 9.83111 13.4194 11.4234 13.4194ZM6.9879 4.54839C6.9879 4.18094 7.28578 3.88306 7.65323 3.88306H12.5323C12.8997 3.88306 13.1976 4.18094 13.1976 4.54839C13.1976 4.91583 12.8997 5.21371 12.5323 5.21371H7.65323C7.28578 5.21371 6.9879 4.91583 6.9879 4.54839ZM7.65323 6.54435C7.28578 6.54435 6.9879 6.84223 6.9879 7.20968C6.9879 7.57713 7.28578 7.875 7.65323 7.875H12.5323C12.8997 7.875 13.1976 7.57713 13.1976 7.20968C13.1976 6.84223 12.8997 6.54435 12.5323 6.54435H7.65323Z" fill="#221A25"/>
</svg>
