<svg width="16" height="16" viewBox="0 0 16 16" fill="none" xmlns="http://www.w3.org/2000/svg">
<path fill-rule="evenodd" clip-rule="evenodd" d="M8 10.5C9.933 10.5 11.5 8.933 11.5 7C11.5 5.067 9.933 3.5 8 3.5C6.067 3.5 4.5 5.067 4.5 7C4.5 8.933 6.067 10.5 8 10.5ZM8 12C10.7614 12 13 9.76142 13 7C13 4.23858 10.7614 2 8 2C5.23858 2 3 4.23858 3 7C3 9.76142 5.23858 12 8 12Z" fill="#221A25"/>
<path fill-rule="evenodd" clip-rule="evenodd" d="M10.0199 9.92383C10.3381 9.65866 10.811 9.70165 11.0762 10.0199L13.5762 13.0199C13.8413 13.3381 13.7983 13.811 13.4801 14.0762C13.1619 14.3413 12.689 14.2983 12.4238 13.9801L9.92383 10.9801C9.65866 10.6619 9.70165 10.189 10.0199 9.92383Z" fill="#221A25"/>
</svg>
