<svg width="46" height="30" viewBox="0 0 46 30" fill="none" xmlns="http://www.w3.org/2000/svg">
<path d="M41.9681 29.9999H3.82102C2.81524 30.0078 1.84893 29.6178 1.1321 28.912C0.41526 28.2078 0.00789467 27.2462 0 26.242V3.75798C0.00789467 2.7522 0.41526 1.79221 1.1321 1.088C1.84893 0.383797 2.81524 -0.00777711 3.82102 0.000117561H41.9681C42.9739 -0.00777711 43.9402 0.382218 44.657 1.088C45.3738 1.79221 45.7812 2.75378 45.7891 3.75798V26.2578C45.7638 28.3451 44.0554 30.0172 41.9681 29.9999Z" fill="#F6F9FC"/>
<path d="M0 25.2627V26.2574C0.0252629 28.3448 1.73367 30.0169 3.82102 29.9995H41.9681C42.9739 30.0074 43.9402 29.6174 44.657 28.9116C45.3738 28.2074 45.7812 27.2458 45.7891 26.2416V25.2627H0Z" fill="#F99F1B"/>
<path d="M0 4.73694V3.74221C0.0252629 1.65486 1.73367 -0.0172342 3.82102 0.000134088H41.9681C42.9739 -0.00776058 43.9402 0.382235 44.657 1.08802C45.3738 1.79222 45.7812 2.7538 45.7891 3.758V4.73694H0ZM21.9472 9.66321L19.6104 20.3526H16.8156L19.1209 9.66321H21.9472ZM33.7418 16.5789L35.226 12.5527L36.0786 16.5789H33.7418ZM36.8839 20.3684H39.4734L37.1997 9.66321H34.8155C34.2897 9.65058 33.8129 9.96478 33.6155 10.4527L29.3998 20.3526H32.3524L32.9366 18.7737H36.5365L36.8839 20.3526V20.3684ZM29.5576 16.8631C29.5576 14.0526 25.5945 13.8948 25.6103 12.6316C25.6261 12.2527 26.005 11.8421 26.8103 11.7316C27.7577 11.6416 28.7113 11.8058 29.5734 12.2053L30.0629 9.94742C29.3998 9.71058 28.5313 9.47374 27.4419 9.47374C24.6629 9.47374 22.7051 10.9264 22.7051 13.0106C22.6893 14.5421 24.0945 15.4105 25.1524 15.9158C26.2577 16.4368 26.6208 16.7842 26.6208 17.2421C26.605 17.9684 25.7366 18.2842 24.9314 18.2842C23.5103 18.3158 22.7051 17.921 22.0577 17.621L21.5367 19.9579C22.1998 20.2579 23.4156 20.5105 24.663 20.5263C27.6156 20.5263 29.5419 19.1052 29.5576 16.8631ZM17.9209 9.66321L13.3736 20.3684H10.421L8.17888 11.8421C8.03677 11.3211 7.91046 11.1316 7.49994 10.8948C6.61889 10.4827 5.69048 10.1811 4.7368 9.99479L4.79996 9.679H9.58413C10.1841 9.679 10.7368 10.0895 10.8789 10.7843L12.0631 16.9579L14.9841 9.69479H17.9209V9.66321Z" fill="#2D4990"/>
</svg>
