<svg width="40" height="40" viewBox="0 0 40 40" fill="none" xmlns="http://www.w3.org/2000/svg">
<path d="M31.4337 9.25425C30.065 7.88063 28.0925 7.00005 26.0172 7.00005C24.7955 7.00005 23.6475 7.2835 22.5438 7.85105C21.4397 8.41824 20.542 9.19435 19.8355 10.1797C19.129 9.19435 18.2312 8.41824 17.1273 7.85101C16.0232 7.2835 14.8752 7 13.6538 7C11.5785 7 9.60631 7.88063 8.23728 9.2542C6.86852 10.6275 6 12.6279 6 14.7331C6 16.1809 6.3033 17.5863 6.67699 18.6443C6.86255 19.1689 7.14296 19.7373 7.51598 20.3164C7.89343 20.902 8.23723 21.3912 8.53144 21.7791C8.82597 22.1674 9.24546 22.6526 9.81195 23.2123C10.3787 23.7724 10.8422 24.2125 11.1807 24.5259C11.5191 24.8397 12.0341 25.3027 12.7114 25.8996C13.4911 26.5865 14.0472 27.098 14.4042 27.4222C14.7537 27.7397 15.258 28.2282 15.9202 28.8703C17.2597 30.1687 18.2425 31.3653 19.1729 32.7367C19.3465 32.9928 19.5704 33.1099 19.8351 33.1099C20.1149 33.1099 20.357 32.9953 20.5269 32.7367C21.1225 31.8306 21.8111 30.9038 22.6169 29.9898C23.4301 29.0675 24.1071 28.3519 24.6482 27.8401C25.1964 27.3216 25.9845 26.598 27.0032 25.6757C27.633 25.105 28.1364 24.6754 28.4752 24.362C28.8137 24.0483 29.2552 23.6155 29.8 23.0633C30.3445 22.5107 30.7749 22.0358 31.0805 21.6448C31.3932 21.2447 31.7236 20.7609 32.0959 20.1819C32.8568 18.9994 33.1899 18.0631 33.4647 16.7484C33.6015 16.0924 33.6707 15.4197 33.6707 14.7331C33.671 12.6279 32.8025 10.6275 31.4337 9.25425ZM31.9047 16.2557C31.6212 17.9121 30.7681 19.5367 29.3437 21.1373C28.722 21.8358 27.581 22.9476 25.9142 24.4515C25.0494 25.2318 24.3543 25.87 23.8094 26.3774C23.2797 26.8703 22.6282 27.5379 21.852 28.3777C21.0827 29.2098 20.4095 30.0347 19.8354 30.8408C19.2319 30.0498 18.5364 29.2471 17.7455 28.4223C16.9469 27.5902 16.3325 26.9595 15.8762 26.5414C15.42 26.1235 14.7248 25.5002 13.7715 24.6455L12.756 23.7349L11.8288 22.8839C11.4272 22.5154 11.1182 22.2157 10.9163 21.9883C10.721 21.768 10.46 21.4807 10.1363 21.1224C9.81258 20.7641 9.56359 20.4498 9.40027 20.1968C9.06307 19.6736 8.48966 18.8927 8.28182 18.2411L7.9433 17.1812C7.69652 16.4086 7.61957 15.6137 7.61957 14.7331C7.61957 13.061 8.2083 11.6279 9.38581 10.4486C10.5781 9.25429 11.9911 8.65712 13.654 8.65712C14.8167 8.65712 15.8912 8.97047 16.8775 9.61254C17.8638 10.2542 18.624 11.1005 19.1148 12.1651C19.257 12.4741 19.4976 12.6279 19.836 12.6279C20.1745 12.6279 20.4361 12.4846 20.5868 12.1651C21.0838 11.1107 21.7938 10.2542 22.7798 9.61254C23.7658 8.97047 24.855 8.65712 26.0177 8.65712C27.681 8.65712 29.094 9.25425 30.2715 10.4336C31.449 11.613 32.0377 13.0461 32.0377 14.7331C32.0372 15.2554 31.9892 15.7624 31.9047 16.2557Z" fill="#221A25"/>
</svg>
