<svg width="47" height="30" viewBox="0 0 47 30" fill="none" xmlns="http://www.w3.org/2000/svg">
<path d="M42.3287 29.9999H4.18162C3.17584 30.0078 2.20953 29.6178 1.49269 28.912C0.775855 28.2078 0.36849 27.2462 0.360596 26.242V3.75798C0.36849 2.7522 0.775855 1.79221 1.49269 1.088C2.20953 0.383799 3.17584 -0.00777711 4.18162 0.00011756H42.3287C43.3345 -0.00777711 44.3008 0.38222 45.0176 1.088C45.7344 1.79221 46.1418 2.75378 46.1497 3.75798V26.2578C46.1244 28.3451 44.416 30.0172 42.3287 29.9999Z" fill="#003663"/>
<path d="M16.9398 25.2625C22.608 25.2625 27.2029 20.6675 27.2029 14.9994C27.2029 9.33126 22.608 4.73633 16.9398 4.73633C11.2717 4.73633 6.67676 9.33126 6.67676 14.9994C6.67676 20.6675 11.2717 25.2625 16.9398 25.2625Z" fill="#EB1C26"/>
<path d="M29.5715 25.2625C35.2397 25.2625 39.8346 20.6675 39.8346 14.9994C39.8346 9.33126 35.2397 4.73633 29.5715 4.73633C23.9034 4.73633 19.3085 9.33126 19.3085 14.9994C19.3085 20.6675 23.9034 25.2625 29.5715 25.2625Z" fill="#F99F1B"/>
<path d="M23.2551 6.91553C20.7619 8.85762 19.3046 11.8402 19.3046 14.9997C19.3046 18.1591 20.7619 21.1417 23.2551 23.0838C25.7482 21.1417 27.2056 18.1591 27.2056 14.9997C27.2056 11.8402 25.7482 8.85762 23.2551 6.91553Z" fill="#EF5D20"/>
</svg>
