<svg width="123" height="16" viewBox="0 0 123 16" fill="none" xmlns="http://www.w3.org/2000/svg">
<path d="M7 4.40625C7.625 4.40625 8.21875 4.59375 8.78125 4.90625C9.34375 5.21875 9.78125 5.65625 10.0938 6.21875C10.4062 6.78125 10.5938 7.375 10.5938 8C10.5938 8.65625 10.4062 9.25 10.0938 9.8125C9.78125 10.375 9.34375 10.8125 8.78125 11.125C8.21875 11.4375 7.625 11.5938 7 11.5938C6.34375 11.5938 5.75 11.4375 5.1875 11.125C4.625 10.8125 4.1875 10.375 3.875 9.8125C3.5625 9.25 3.40625 8.65625 3.40625 8C3.40625 7.375 3.5625 6.78125 3.875 6.21875C4.1875 5.65625 4.625 5.21875 5.1875 4.90625C5.75 4.59375 6.34375 4.40625 7 4.40625ZM7 10.3438C7.625 10.3438 8.1875 10.125 8.65625 9.65625C9.09375 9.21875 9.34375 8.65625 9.34375 8C9.34375 7.375 9.09375 6.8125 8.65625 6.34375C8.1875 5.90625 7.625 5.65625 7 5.65625C6.34375 5.65625 5.78125 5.90625 5.34375 6.34375C4.875 6.8125 4.65625 7.375 4.65625 8C4.65625 8.65625 4.875 9.21875 5.34375 9.65625C5.78125 10.125 6.34375 10.3438 7 10.3438ZM11.5938 4.25C11.5938 4.03125 11.5 3.84375 11.3438 3.65625C11.1562 3.5 10.9688 3.40625 10.75 3.40625C10.5 3.40625 10.3125 3.5 10.1562 3.65625C9.96875 3.84375 9.90625 4.03125 9.90625 4.25C9.90625 4.5 9.96875 4.6875 10.1562 4.84375C10.3125 5.03125 10.5 5.09375 10.75 5.09375C10.9688 5.09375 11.1562 5.03125 11.3125 4.84375C11.4688 4.6875 11.5625 4.5 11.5938 4.25ZM13.9688 5.09375C13.9688 5.6875 14 6.65625 14 8C14 9.375 13.9688 10.3438 13.9375 10.9375C13.9062 11.5312 13.8125 12.0312 13.6875 12.4688C13.5 13 13.1875 13.4688 12.8125 13.8438C12.4375 14.2188 11.9688 14.5 11.4688 14.6875C11.0312 14.8438 10.5 14.9375 9.90625 14.9688C9.3125 15 8.34375 15 7 15C5.625 15 4.65625 15 4.0625 14.9688C3.46875 14.9375 2.96875 14.8438 2.53125 14.6562C2 14.5 1.53125 14.2188 1.15625 13.8438C0.78125 13.4688 0.5 13 0.3125 12.4688C0.15625 12.0312 0.0625 11.5312 0.03125 10.9375C0 10.3438 0 9.375 0 8C0 6.65625 0 5.6875 0.03125 5.09375C0.0625 4.5 0.15625 3.96875 0.3125 3.53125C0.5 3.03125 0.78125 2.5625 1.15625 2.1875C1.53125 1.8125 2 1.5 2.53125 1.3125C2.96875 1.1875 3.46875 1.09375 4.0625 1.0625C4.65625 1.03125 5.625 1 7 1C8.34375 1 9.3125 1.03125 9.90625 1.0625C10.5 1.09375 11.0312 1.1875 11.4688 1.3125C11.9688 1.5 12.4375 1.8125 12.8125 2.1875C13.1875 2.5625 13.5 3.03125 13.6875 3.53125C13.8125 3.96875 13.9062 4.5 13.9688 5.09375ZM12.4688 12.125C12.5938 11.7812 12.6562 11.2188 12.7188 10.4375C12.7188 10 12.75 9.34375 12.75 8.5V7.5C12.75 6.65625 12.7188 6 12.7188 5.5625C12.6562 4.78125 12.5938 4.21875 12.4688 3.875C12.2188 3.25 11.75 2.78125 11.125 2.53125C10.7812 2.40625 10.2188 2.34375 9.4375 2.28125C8.96875 2.28125 8.3125 2.25 7.5 2.25H6.5C5.65625 2.25 5 2.28125 4.5625 2.28125C3.78125 2.34375 3.21875 2.40625 2.875 2.53125C2.21875 2.78125 1.78125 3.25 1.53125 3.875C1.40625 4.21875 1.3125 4.78125 1.28125 5.5625C1.25 6.03125 1.25 6.6875 1.25 7.5V8.5C1.25 9.34375 1.25 10 1.28125 10.4375C1.3125 11.2188 1.40625 11.7812 1.53125 12.125C1.78125 12.7812 2.25 13.2188 2.875 13.4688C3.21875 13.5938 3.78125 13.6875 4.5625 13.7188C5 13.75 5.65625 13.75 6.5 13.75H7.5C8.34375 13.75 9 13.75 9.4375 13.7188C10.2188 13.6875 10.7812 13.5938 11.125 13.4688C11.75 13.2188 12.2188 12.75 12.4688 12.125ZM50.2375 3.875C50.3625 4.4375 50.4875 5.3125 50.55 6.4375L50.5812 8L50.55 9.5625C50.4875 10.75 50.3625 11.5938 50.2375 12.1562C50.1125 12.5312 49.925 12.8438 49.675 13.0938C49.3937 13.375 49.0812 13.5625 48.7062 13.6562C48.1437 13.8125 46.8937 13.9062 44.8937 13.9688L42.05 14L39.2062 13.9688C37.2062 13.9062 35.925 13.8125 35.3937 13.6562C35.0187 13.5625 34.675 13.375 34.425 13.0938C34.1437 12.8438 33.9562 12.5312 33.8625 12.1562C33.7062 11.5938 33.6125 10.75 33.55 9.5625L33.5187 8C33.5187 7.5625 33.5187 7.03125 33.55 6.4375C33.6125 5.3125 33.7062 4.4375 33.8625 3.875C33.9562 3.5 34.1437 3.1875 34.425 2.90625C34.675 2.65625 35.0187 2.46875 35.3937 2.34375C35.925 2.21875 37.2062 2.09375 39.2062 2.03125L42.05 2L44.8937 2.03125C46.8937 2.09375 48.1437 2.21875 48.7062 2.34375C49.0812 2.46875 49.3937 2.65625 49.675 2.90625C49.925 3.1875 50.1125 3.5 50.2375 3.875ZM40.3 10.5625L44.7687 8L40.3 5.46875V10.5625ZM87.1312 3.6875C87.0687 4 86.8187 4.53125 86.3812 5.25C86.0687 5.78125 85.6937 6.375 85.2562 7.0625C84.8812 7.625 84.6625 7.90625 84.6625 7.90625C84.5375 8.09375 84.475 8.25 84.475 8.34375C84.475 8.46875 84.5375 8.59375 84.6625 8.71875L84.9437 9.03125C86.4437 10.5938 87.2875 11.6562 87.475 12.2188C87.5375 12.4688 87.5062 12.6875 87.3812 12.8125C87.2562 12.9375 87.1 13 86.85 13H85.0062C84.7562 13 84.5687 12.9375 84.3812 12.7812C84.2562 12.7188 84.0062 12.5 83.6937 12.125C83.3812 11.75 83.1 11.4375 82.85 11.1875C82.0062 10.4062 81.3812 10 81.0062 10C80.8187 10 80.6937 10.0312 80.6312 10.0938C80.5687 10.1562 80.5375 10.3125 80.5375 10.5C80.5062 10.6562 80.5062 10.9688 80.5062 11.4688V12.2812C80.5062 12.5312 80.4437 12.7188 80.3187 12.8125C80.1312 12.9375 79.7562 13 79.1937 13C78.1937 13 77.225 12.7188 76.225 12.125C75.225 11.5625 74.35 10.7188 73.6 9.625C72.8812 8.6875 72.2875 7.71875 71.8187 6.71875C71.4437 5.96875 71.1312 5.28125 70.9125 4.625C70.7562 4.125 70.6937 3.75 70.6937 3.53125C70.6937 3.1875 70.8812 3 71.3187 3H73.1625C73.3812 3 73.5375 3.0625 73.6625 3.15625C73.7875 3.28125 73.8812 3.46875 73.975 3.71875C74.2562 4.5625 74.6 5.375 75.0375 6.15625C75.4125 6.90625 75.7875 7.5 76.1625 7.9375C76.5375 8.40625 76.8187 8.625 77.0375 8.625C77.1625 8.625 77.225 8.59375 77.2875 8.5C77.35 8.40625 77.3812 8.21875 77.3812 7.9375V5.21875C77.35 4.90625 77.2875 4.59375 77.1625 4.34375C77.1 4.21875 76.975 4.0625 76.85 3.875C76.6937 3.6875 76.6312 3.5625 76.6312 3.4375C76.6312 3.3125 76.6625 3.21875 76.7562 3.125C76.85 3.0625 76.975 3 77.1 3H80.0062C80.1937 3 80.3187 3.0625 80.3812 3.15625C80.4437 3.28125 80.5062 3.4375 80.5062 3.6875V7.3125C80.5062 7.5 80.5375 7.65625 80.6 7.71875C80.6625 7.8125 80.725 7.84375 80.8187 7.84375C80.9125 7.84375 81.0375 7.8125 81.1625 7.75C81.2875 7.6875 81.4437 7.53125 81.6625 7.28125C82.0375 6.84375 82.4437 6.3125 82.85 5.65625C83.1 5.21875 83.3812 4.71875 83.6312 4.15625L83.9437 3.53125C84.0687 3.1875 84.35 3 84.725 3H86.5687C87.0687 3 87.2562 3.25 87.1312 3.6875ZM114.9 0.25C116.275 0.25 117.588 0.625 118.775 1.3125C119.963 2 120.9 2.9375 121.588 4.125C122.275 5.3125 122.65 6.625 122.65 8C122.65 9.40625 122.275 10.6875 121.588 11.875C120.9 13.0625 119.963 14.0312 118.775 14.7188C117.588 15.4062 116.275 15.75 114.9 15.75C113.494 15.75 112.213 15.4062 111.025 14.7188C109.838 14.0312 108.869 13.0625 108.181 11.875C107.494 10.6875 107.15 9.40625 107.15 8C107.15 6.625 107.494 5.3125 108.181 4.125C108.869 2.9375 109.838 2 111.025 1.3125C112.213 0.625 113.494 0.25 114.9 0.25ZM118.713 5.5625C118.744 5.3125 118.713 5.15625 118.588 5.03125C118.463 4.90625 118.338 4.875 118.181 4.9375L110.713 7.84375C110.431 7.9375 110.275 8.03125 110.275 8.15625C110.275 8.28125 110.369 8.375 110.619 8.4375L112.525 9.03125L116.963 6.25C117.056 6.1875 117.15 6.1875 117.213 6.1875C117.275 6.21875 117.275 6.25 117.213 6.3125L113.619 9.5625L113.463 11.5312C113.588 11.5312 113.744 11.4688 113.869 11.3438L114.806 10.4375L116.744 11.875C117.119 12.0938 117.338 12 117.431 11.5625L118.713 5.5625Z" fill="#221A25"/>
</svg>
