<svg width="13" height="13" viewBox="0 0 13 13" fill="none" xmlns="http://www.w3.org/2000/svg">
<path d="M10.418 2.40234C10.9922 3.00391 11.4297 3.66016 11.7578 4.39844C12.0859 5.13672 12.25 5.90234 12.25 6.69531C12.25 7.78906 11.9492 8.80078 11.4023 9.73047C10.8555 10.6602 10.0898 11.3984 9.16016 11.9453C8.23047 12.4922 7.21875 12.7656 6.125 12.7656C5.08594 12.7656 4.10156 12.5195 3.22656 12.0273L0 12.875L0.875 9.73047C0.328125 8.80078 0.0546875 7.78906 0.0546875 6.69531C0.0546875 5.60156 0.328125 4.58984 0.875 3.66016C1.42188 2.73047 2.16016 1.99219 3.08984 1.44531C4.01953 0.898438 5.03125 0.625 6.125 0.625C6.91797 0.625 7.68359 0.789062 8.42188 1.08984C9.16016 1.41797 9.81641 1.85547 10.418 2.40234ZM6.125 11.7539C7.02734 11.7539 7.875 11.5352 8.66797 11.0703C9.43359 10.6328 10.0625 10.0039 10.5273 9.23828C10.9922 8.47266 11.2383 7.625 11.2383 6.69531C11.2383 6.03906 11.1016 5.41016 10.8281 4.78125C10.5547 4.17969 10.1719 3.63281 9.67969 3.14062C9.1875 2.64844 8.64062 2.29297 8.03906 2.01953C7.4375 1.77344 6.78125 1.63672 6.125 1.63672C5.19531 1.63672 4.34766 1.88281 3.58203 2.32031C2.81641 2.78516 2.1875 3.41406 1.75 4.17969C1.28516 4.94531 1.06641 5.79297 1.06641 6.69531C1.06641 7.67969 1.3125 8.55469 1.85938 9.375L1.96875 9.56641L1.44922 11.4258L3.36328 10.9336L3.55469 11.043C4.32031 11.5352 5.19531 11.7539 6.125 11.7539ZM8.88672 7.95312L8.96875 8.00781C9.07812 8.0625 9.16016 8.11719 9.1875 8.14453C9.1875 8.19922 9.1875 8.28125 9.1875 8.41797C9.1875 8.58203 9.13281 8.71875 9.07812 8.88281C9.02344 9.04688 8.85938 9.18359 8.64062 9.34766C8.42188 9.51172 8.23047 9.59375 8.06641 9.59375C7.79297 9.64844 7.54688 9.64844 7.32812 9.59375C7.05469 9.53906 6.67188 9.42969 6.23438 9.21094C5.30469 8.82812 4.45703 8.0625 3.69141 6.96875L3.63672 6.91406C3.22656 6.36719 3.03516 5.84766 3.03516 5.35547C3.03516 4.89062 3.19922 4.48047 3.52734 4.125L3.55469 4.09766C3.66406 3.98828 3.80078 3.90625 3.96484 3.90625H4.29297C4.34766 3.90625 4.40234 3.93359 4.45703 3.96094C4.51172 3.98828 4.53906 4.04297 4.59375 4.15234L5.05859 5.27344C5.11328 5.38281 5.11328 5.49219 5.08594 5.54688C4.97656 5.73828 4.86719 5.90234 4.73047 6.03906C4.64844 6.12109 4.59375 6.17578 4.59375 6.23047C4.56641 6.28516 4.59375 6.3125 4.64844 6.36719C4.89453 6.85938 5.19531 7.21484 5.55078 7.48828C5.79688 7.70703 6.17969 7.92578 6.69922 8.17188C6.83594 8.25391 6.94531 8.25391 7.02734 8.14453C7.24609 7.87109 7.41016 7.67969 7.51953 7.54297C7.54688 7.48828 7.60156 7.43359 7.65625 7.43359C7.71094 7.43359 7.76562 7.46094 7.84766 7.46094C7.98438 7.51562 8.33984 7.67969 8.88672 7.95312Z" fill="#55C380"/>
</svg>
